# MagicaVoxel @ Ephtracy

# material
mtllib ally.mtl
usemtl palette

# normals
vn -1 0 0
vn 1 0 0
vn 0 0 1
vn 0 0 -1
vn 0 -1 0
vn 0 1 0

# texcoords
vt 0.970703 0.5
vt 0.974609 0.5
vt 0.978516 0.5
vt 0.982422 0.5
vt 0.994141 0.5

# verts
v -5 4 2
v -5 4 -1
v -5 5 4
v -5 5 3
v -5 5 2
v -5 6 4
v -5 6 3
v -5 6 -1
v -4 6 1
v -4 6 -1
v -4 8 1
v -4 8 -1
v -3 1 2
v -3 1 1
v -3 1 -1
v -3 1 -2
v -3 2 3
v -3 2 2
v -3 2 1
v -3 2 -1
v -3 2 -2
v -3 2 -3
v -3 3 3
v -3 3 2
v -3 3 -2
v -3 3 -3
v -3 8 1
v -3 8 -1
v -3 9 1
v -3 9 -1
v -2 0 3
v -2 0 1
v -2 0 -1
v -2 0 -3
v -2 1 4
v -2 1 3
v -2 1 2
v -2 1 1
v -2 1 -1
v -2 1 -2
v -2 1 -3
v -2 1 -4
v -2 2 3
v -2 2 2
v -2 2 1
v -2 2 -1
v -2 2 -2
v -2 2 -3
v -2 3 4
v -2 3 3
v -2 3 2
v -2 3 1
v -2 3 -1
v -2 3 -2
v -2 3 -3
v -2 3 -4
v -2 4 3
v -2 4 1
v -2 4 -1
v -2 4 -3
v -2 5 2
v -2 5 1
v -2 5 -1
v -2 5 -2
v -2 7 2
v -2 7 1
v -2 7 -1
v -2 7 -2
v -2 8 2
v -2 8 1
v -2 8 -1
v -2 8 -2
v -2 9 1
v -2 9 -1
v -2 10 1
v -2 10 -0
v -2 11 1
v -2 11 -0
v -2 11 -1
v -1 3 1
v -1 3 -1
v -1 4 2
v -1 4 1
v -1 4 -1
v -1 4 -2
v -1 5 2
v -1 5 1
v -1 5 -1
v -1 5 -2
v -1 7 1
v -1 7 -1
v -1 8 -1
v -1 8 -2
v -1 11 -0
v -1 11 -1
v -1 11 -2
v -1 12 -0
v -1 12 -1
v 1 0 3
v 1 0 1
v 1 0 -1
v 1 0 -3
v 1 1 4
v 1 1 3
v 1 1 2
v 1 1 1
v 1 1 -1
v 1 1 -2
v 1 1 -3
v 1 1 -4
v 1 2 2
v 1 2 -2
v 1 3 4
v 1 3 3
v 1 3 2
v 1 3 -2
v 1 3 -3
v 1 3 -4
v 1 4 3
v 1 4 2
v 1 4 -2
v 1 4 -3
v 1 6 2
v 1 6 1
v 1 7 2
v 1 7 1
v 1 8 2
v 1 8 1
v 3 5 1
v 3 5 -1
v 3 7 1
v 3 7 -1
v 4 4 2
v 4 4 -1
v 4 5 4
v 4 5 3
v 4 5 2
v 4 5 1
v 4 5 -1
v 4 6 4
v 4 6 3
v 4 6 1
v -4 4 2
v -4 4 -1
v -4 5 4
v -4 5 3
v -4 5 2
v -4 5 1
v -4 5 -1
v -4 6 4
v -4 6 3
v -4 6 1
v -3 5 1
v -3 5 -1
v -3 7 1
v -3 7 -1
v -1 0 3
v -1 0 1
v -1 0 -1
v -1 0 -3
v -1 1 4
v -1 1 3
v -1 1 2
v -1 1 1
v -1 1 -1
v -1 1 -2
v -1 1 -3
v -1 1 -4
v -1 2 2
v -1 2 -2
v -1 3 4
v -1 3 3
v -1 3 2
v -1 3 -2
v -1 3 -3
v -1 3 -4
v -1 4 3
v -1 4 2
v -1 4 -2
v -1 4 -3
v -1 6 2
v -1 6 1
v -1 7 2
v -1 7 1
v -1 8 2
v -1 8 1
v 1 3 1
v 1 3 -1
v 1 4 2
v 1 4 1
v 1 4 -1
v 1 4 -2
v 1 5 2
v 1 5 1
v 1 5 -1
v 1 5 -2
v 1 7 1
v 1 7 -1
v 1 8 -1
v 1 8 -2
v 1 11 -0
v 1 11 -1
v 1 11 -2
v 1 12 -0
v 1 12 -1
v 2 0 3
v 2 0 1
v 2 0 -1
v 2 0 -3
v 2 1 4
v 2 1 3
v 2 1 2
v 2 1 1
v 2 1 -1
v 2 1 -2
v 2 1 -3
v 2 1 -4
v 2 2 3
v 2 2 2
v 2 2 1
v 2 2 -1
v 2 2 -2
v 2 2 -3
v 2 3 4
v 2 3 3
v 2 3 2
v 2 3 1
v 2 3 -1
v 2 3 -2
v 2 3 -3
v 2 3 -4
v 2 4 3
v 2 4 1
v 2 4 -1
v 2 4 -3
v 2 5 2
v 2 5 1
v 2 5 -1
v 2 5 -2
v 2 7 2
v 2 7 1
v 2 7 -1
v 2 7 -2
v 2 8 2
v 2 8 1
v 2 8 -1
v 2 8 -2
v 2 9 1
v 2 9 -1
v 2 10 1
v 2 10 -0
v 2 11 1
v 2 11 -0
v 2 11 -1
v 3 1 3
v 3 1 2
v 3 1 -2
v 3 1 -3
v 3 2 3
v 3 2 2
v 3 2 1
v 3 2 -1
v 3 2 -2
v 3 2 -3
v 3 3 2
v 3 3 1
v 3 3 -1
v 3 3 -2
v 3 8 1
v 3 8 -1
v 3 9 1
v 3 9 -1
v 4 6 1
v 4 6 -1
v 4 8 1
v 4 8 -1
v 5 4 2
v 5 4 -1
v 5 5 4
v 5 5 3
v 5 5 2
v 5 6 4
v 5 6 3
v 5 6 -1
v -5 5 4
v -5 6 4
v -4 5 4
v -4 6 4
v -2 1 4
v -2 3 4
v -1 1 4
v -1 3 4
v 1 1 4
v 1 3 4
v 2 1 4
v 2 3 4
v 4 5 4
v 4 6 4
v 5 5 4
v 5 6 4
v -3 2 3
v -3 3 3
v -2 0 3
v -2 1 3
v -2 2 3
v -2 3 3
v -2 4 3
v -1 0 3
v -1 1 3
v -1 3 3
v -1 4 3
v 1 0 3
v 1 1 3
v 1 3 3
v 1 4 3
v 2 0 3
v 2 1 3
v 2 2 3
v 2 3 3
v 2 4 3
v 3 1 3
v 3 2 3
v -5 4 2
v -5 5 2
v -4 4 2
v -4 5 2
v -3 1 2
v -3 2 2
v -2 1 2
v -2 2 2
v -2 5 2
v -2 7 2
v -2 8 2
v -1 1 2
v -1 2 2
v -1 3 2
v -1 4 2
v -1 5 2
v -1 6 2
v -1 7 2
v -1 8 2
v 1 1 2
v 1 2 2
v 1 3 2
v 1 4 2
v 1 5 2
v 1 6 2
v 1 7 2
v 1 8 2
v 2 2 2
v 2 3 2
v 2 5 2
v 2 7 2
v 2 8 2
v 3 2 2
v 3 3 2
v 4 4 2
v 4 5 2
v 5 4 2
v 5 5 2
v -4 5 1
v -4 6 1
v -4 8 1
v -3 5 1
v -3 7 1
v -3 8 1
v -3 9 1
v -2 7 1
v -2 8 1
v -2 9 1
v -2 10 1
v -2 11 1
v -1 6 1
v -1 7 1
v -1 8 1
v -1 10 1
v -1 11 1
v 1 6 1
v 1 7 1
v 1 8 1
v 1 10 1
v 1 11 1
v 2 7 1
v 2 8 1
v 2 9 1
v 2 10 1
v 2 11 1
v 3 5 1
v 3 7 1
v 3 8 1
v 3 9 1
v 4 5 1
v 4 6 1
v 4 8 1
v -1 11 -0
v -1 12 -0
v 1 11 -0
v 1 12 -0
v -3 1 -1
v -3 2 -1
v -2 0 -1
v -2 1 -1
v -2 2 -1
v -2 3 -1
v -2 4 -1
v -2 5 -1
v -2 7 -1
v -1 0 -1
v -1 1 -1
v -1 3 -1
v -1 4 -1
v -1 5 -1
v -1 7 -1
v 1 0 -1
v 1 1 -1
v 1 3 -1
v 1 4 -1
v 1 5 -1
v 1 7 -1
v 2 0 -1
v 2 1 -1
v 2 2 -1
v 2 3 -1
v 2 4 -1
v 2 5 -1
v 2 7 -1
v 3 2 -1
v 3 3 -1
v -3 2 -2
v -3 3 -2
v -2 2 -2
v -2 3 -2
v 2 1 -2
v 2 2 -2
v 3 1 -2
v 3 2 -2
v -3 2 2
v -3 3 2
v -2 2 2
v -2 3 2
v 2 1 2
v 2 2 2
v 3 1 2
v 3 2 2
v -3 1 1
v -3 2 1
v -2 0 1
v -2 1 1
v -2 2 1
v -2 3 1
v -2 4 1
v -2 5 1
v -2 7 1
v -1 0 1
v -1 1 1
v -1 3 1
v -1 4 1
v -1 5 1
v -1 7 1
v 1 0 1
v 1 1 1
v 1 3 1
v 1 4 1
v 1 5 1
v 1 7 1
v 2 0 1
v 2 1 1
v 2 2 1
v 2 3 1
v 2 4 1
v 2 5 1
v 2 7 1
v 3 2 1
v 3 3 1
v -5 4 -1
v -5 6 -1
v -4 4 -1
v -4 5 -1
v -4 6 -1
v -4 8 -1
v -3 5 -1
v -3 7 -1
v -3 8 -1
v -3 9 -1
v -2 7 -1
v -2 8 -1
v -2 9 -1
v -2 11 -1
v -1 8 -1
v -1 11 -1
v -1 12 -1
v 1 8 -1
v 1 11 -1
v 1 12 -1
v 2 7 -1
v 2 8 -1
v 2 9 -1
v 2 11 -1
v 3 5 -1
v 3 7 -1
v 3 8 -1
v 3 9 -1
v 4 4 -1
v 4 5 -1
v 4 6 -1
v 4 8 -1
v 5 4 -1
v 5 6 -1
v -3 1 -2
v -3 2 -2
v -2 1 -2
v -2 2 -2
v -2 5 -2
v -2 7 -2
v -2 8 -2
v -1 1 -2
v -1 2 -2
v -1 3 -2
v -1 4 -2
v -1 5 -2
v -1 7 -2
v -1 8 -2
v -1 11 -2
v 1 1 -2
v 1 2 -2
v 1 3 -2
v 1 4 -2
v 1 5 -2
v 1 7 -2
v 1 8 -2
v 1 11 -2
v 2 2 -2
v 2 3 -2
v 2 5 -2
v 2 7 -2
v 2 8 -2
v 3 2 -2
v 3 3 -2
v -3 2 -3
v -3 3 -3
v -2 0 -3
v -2 1 -3
v -2 2 -3
v -2 3 -3
v -2 4 -3
v -1 0 -3
v -1 1 -3
v -1 3 -3
v -1 4 -3
v 1 0 -3
v 1 1 -3
v 1 3 -3
v 1 4 -3
v 2 0 -3
v 2 1 -3
v 2 2 -3
v 2 3 -3
v 2 4 -3
v 3 1 -3
v 3 2 -3
v -2 1 -4
v -2 3 -4
v -1 1 -4
v -1 3 -4
v 1 1 -4
v 1 3 -4
v 2 1 -4
v 2 3 -4
v -2 0 3
v -1 0 3
v 1 0 3
v 2 0 3
v -2 0 1
v -1 0 1
v 1 0 1
v 2 0 1
v -2 0 -1
v -1 0 -1
v 1 0 -1
v 2 0 -1
v -2 0 -3
v -1 0 -3
v 1 0 -3
v 2 0 -3
v -2 1 4
v -1 1 4
v 1 1 4
v 2 1 4
v -2 1 3
v -1 1 3
v 1 1 3
v 2 1 3
v 3 1 3
v -3 1 2
v -2 1 2
v -1 1 2
v 1 1 2
v 2 1 2
v 3 1 2
v -3 1 1
v -2 1 1
v -1 1 1
v 1 1 1
v 2 1 1
v -3 1 -1
v -2 1 -1
v -1 1 -1
v 1 1 -1
v 2 1 -1
v -3 1 -2
v -2 1 -2
v -1 1 -2
v 1 1 -2
v 2 1 -2
v 3 1 -2
v -2 1 -3
v -1 1 -3
v 1 1 -3
v 2 1 -3
v 3 1 -3
v -2 1 -4
v -1 1 -4
v 1 1 -4
v 2 1 -4
v -3 2 3
v -2 2 3
v -3 2 2
v -2 2 2
v 2 2 2
v 3 2 2
v 2 2 1
v 3 2 1
v 2 2 -1
v 3 2 -1
v -3 2 -2
v -2 2 -2
v 2 2 -2
v 3 2 -2
v -3 2 -3
v -2 2 -3
v -5 4 2
v -4 4 2
v 4 4 2
v 5 4 2
v -5 4 -1
v -4 4 -1
v 4 4 -1
v 5 4 -1
v -5 5 4
v -4 5 4
v 4 5 4
v 5 5 4
v -5 5 3
v -4 5 3
v 4 5 3
v 5 5 3
v -5 5 2
v -4 5 2
v -2 5 2
v -1 5 2
v 1 5 2
v 2 5 2
v 4 5 2
v 5 5 2
v -4 5 1
v -3 5 1
v -2 5 1
v -1 5 1
v 1 5 1
v 2 5 1
v 3 5 1
v 4 5 1
v -4 5 -1
v -3 5 -1
v -2 5 -1
v -1 5 -1
v 1 5 -1
v 2 5 -1
v 3 5 -1
v 4 5 -1
v -2 5 -2
v -1 5 -2
v 1 5 -2
v 2 5 -2
v -3 7 1
v -2 7 1
v -1 7 1
v 1 7 1
v 2 7 1
v 3 7 1
v -3 7 -1
v -2 7 -1
v -1 7 -1
v 1 7 -1
v 2 7 -1
v 3 7 -1
v 2 2 3
v 3 2 3
v -3 2 2
v -2 2 2
v 2 2 2
v 3 2 2
v -3 2 1
v -2 2 1
v -3 2 -1
v -2 2 -1
v -3 2 -2
v -2 2 -2
v 2 2 -2
v 3 2 -2
v 2 2 -3
v 3 2 -3
v -2 3 4
v -1 3 4
v 1 3 4
v 2 3 4
v -3 3 3
v -2 3 3
v -1 3 3
v 1 3 3
v 2 3 3
v -3 3 2
v -2 3 2
v 2 3 2
v 3 3 2
v -2 3 1
v -1 3 1
v 1 3 1
v 2 3 1
v 3 3 1
v -2 3 -1
v -1 3 -1
v 1 3 -1
v 2 3 -1
v 3 3 -1
v -3 3 -2
v -2 3 -2
v 2 3 -2
v 3 3 -2
v -3 3 -3
v -2 3 -3
v -1 3 -3
v 1 3 -3
v 2 3 -3
v -2 3 -4
v -1 3 -4
v 1 3 -4
v 2 3 -4
v -2 4 3
v -1 4 3
v 1 4 3
v 2 4 3
v -1 4 2
v 1 4 2
v -2 4 1
v -1 4 1
v 1 4 1
v 2 4 1
v -2 4 -1
v -1 4 -1
v 1 4 -1
v 2 4 -1
v -1 4 -2
v 1 4 -2
v -2 4 -3
v -1 4 -3
v 1 4 -3
v 2 4 -3
v -5 6 4
v -4 6 4
v 4 6 4
v 5 6 4
v -5 6 3
v -4 6 3
v 4 6 3
v 5 6 3
v -1 6 2
v 1 6 2
v -4 6 1
v -1 6 1
v 1 6 1
v 4 6 1
v -5 6 -1
v -4 6 -1
v 4 6 -1
v 5 6 -1
v -2 8 2
v -1 8 2
v 1 8 2
v 2 8 2
v -4 8 1
v -3 8 1
v -2 8 1
v -1 8 1
v 1 8 1
v 2 8 1
v 3 8 1
v 4 8 1
v -4 8 -1
v -3 8 -1
v -2 8 -1
v -1 8 -1
v 1 8 -1
v 2 8 -1
v 3 8 -1
v 4 8 -1
v -2 8 -2
v -1 8 -2
v 1 8 -2
v 2 8 -2
v -3 9 1
v -2 9 1
v 2 9 1
v 3 9 1
v -3 9 -1
v -2 9 -1
v 2 9 -1
v 3 9 -1
v -2 11 1
v -1 11 1
v 1 11 1
v 2 11 1
v -2 11 -0
v -1 11 -0
v 1 11 -0
v 2 11 -0
v -2 11 -1
v -1 11 -1
v 1 11 -1
v 2 11 -1
v -1 11 -2
v 1 11 -2
v -1 12 -0
v 1 12 -0
v -1 12 -1
v 1 12 -1

# faces
f 5/3/1 2/3/1 1/3/1
f 6/4/1 4/4/1 3/4/1
f 7/3/1 5/3/1 4/3/1
f 7/4/1 4/4/1 6/4/1
f 8/3/1 2/3/1 5/3/1
f 8/3/1 5/3/1 7/3/1
f 11/3/1 10/3/1 9/3/1
f 12/3/1 10/3/1 11/3/1
f 18/1/1 14/1/1 13/1/1
f 19/1/1 14/1/1 18/1/1
f 20/1/1 16/1/1 15/1/1
f 21/1/1 16/1/1 20/1/1
f 23/1/1 18/1/1 17/1/1
f 24/1/1 18/1/1 23/1/1
f 25/1/1 22/1/1 21/1/1
f 26/1/1 22/1/1 25/1/1
f 29/3/1 28/3/1 27/3/1
f 30/3/1 28/3/1 29/3/1
f 36/5/1 32/5/1 31/5/1
f 37/5/1 32/5/1 36/5/1
f 38/5/1 32/5/1 37/5/1
f 39/5/1 34/5/1 33/5/1
f 40/5/1 34/5/1 39/5/1
f 41/5/1 34/5/1 40/5/1
f 43/5/1 36/5/1 35/5/1
f 43/5/1 37/5/1 36/5/1
f 44/5/1 37/5/1 43/5/1
f 45/5/1 39/5/1 38/5/1
f 46/5/1 39/5/1 45/5/1
f 47/5/1 42/5/1 41/5/1
f 47/5/1 41/5/1 40/5/1
f 48/5/1 42/5/1 47/5/1
f 49/5/1 43/5/1 35/5/1
f 50/5/1 43/5/1 49/5/1
f 51/5/1 46/5/1 45/5/1
f 51/5/1 45/5/1 44/5/1
f 51/5/1 47/5/1 46/5/1
f 52/5/1 47/5/1 51/5/1
f 53/5/1 47/5/1 52/5/1
f 54/5/1 47/5/1 53/5/1
f 55/5/1 42/5/1 48/5/1
f 56/5/1 42/5/1 55/5/1
f 57/5/1 51/5/1 50/5/1
f 57/5/1 52/5/1 51/5/1
f 58/5/1 52/5/1 57/5/1
f 59/5/1 54/5/1 53/5/1
f 59/5/1 55/5/1 54/5/1
f 60/5/1 55/5/1 59/5/1
f 65/1/1 62/1/1 61/1/1
f 66/1/1 62/1/1 65/1/1
f 67/1/1 64/1/1 63/1/1
f 68/1/1 64/1/1 67/1/1
f 69/3/1 66/3/1 65/3/1
f 70/3/1 66/3/1 69/3/1
f 71/3/1 68/3/1 67/3/1
f 72/3/1 68/3/1 71/3/1
f 75/3/1 74/3/1 73/3/1
f 76/3/1 74/3/1 75/3/1
f 77/2/1 76/2/1 75/2/1
f 78/3/1 74/3/1 76/3/1
f 78/2/1 76/2/1 77/2/1
f 79/3/1 74/3/1 78/3/1
f 83/1/1 81/1/1 80/1/1
f 84/1/1 81/1/1 83/1/1
f 86/3/1 83/3/1 82/3/1
f 87/2/1 84/2/1 83/2/1
f 87/3/1 83/3/1 86/3/1
f 88/3/1 85/3/1 84/3/1
f 88/2/1 84/2/1 87/2/1
f 89/3/1 85/3/1 88/3/1
f 90/3/1 88/3/1 87/3/1
f 91/3/1 88/3/1 90/3/1
f 95/3/1 93/3/1 92/3/1
f 96/3/1 93/3/1 95/3/1
f 97/3/1 95/3/1 94/3/1
f 98/3/1 95/3/1 97/3/1
f 104/5/1 100/5/1 99/5/1
f 105/5/1 100/5/1 104/5/1
f 106/5/1 100/5/1 105/5/1
f 107/5/1 102/5/1 101/5/1
f 108/5/1 102/5/1 107/5/1
f 109/5/1 102/5/1 108/5/1
f 111/5/1 104/5/1 103/5/1
f 111/5/1 105/5/1 104/5/1
f 112/5/1 110/5/1 109/5/1
f 112/5/1 109/5/1 108/5/1
f 113/5/1 111/5/1 103/5/1
f 114/5/1 111/5/1 113/5/1
f 115/5/1 111/5/1 114/5/1
f 116/5/1 110/5/1 112/5/1
f 117/5/1 110/5/1 116/5/1
f 118/5/1 110/5/1 117/5/1
f 119/5/1 115/5/1 114/5/1
f 120/5/1 115/5/1 119/5/1
f 121/5/1 117/5/1 116/5/1
f 122/5/1 117/5/1 121/5/1
f 125/1/1 124/1/1 123/1/1
f 126/1/1 124/1/1 125/1/1
f 127/3/1 126/3/1 125/3/1
f 128/3/1 126/3/1 127/3/1
f 131/3/1 130/3/1 129/3/1
f 132/3/1 130/3/1 131/3/1
f 137/3/1 134/3/1 133/3/1
f 138/3/1 134/3/1 137/3/1
f 139/3/1 134/3/1 138/3/1
f 140/4/1 136/4/1 135/4/1
f 141/3/1 137/3/1 136/3/1
f 141/4/1 136/4/1 140/4/1
f 141/3/1 138/3/1 137/3/1
f 142/3/1 138/3/1 141/3/1
f 143/3/2 144/3/2 147/3/2
f 147/3/2 144/3/2 148/3/2
f 148/3/2 144/3/2 149/3/2
f 145/4/2 146/4/2 150/4/2
f 146/3/2 147/3/2 151/3/2
f 150/4/2 146/4/2 151/4/2
f 147/3/2 148/3/2 151/3/2
f 151/3/2 148/3/2 152/3/2
f 153/3/2 154/3/2 155/3/2
f 155/3/2 154/3/2 156/3/2
f 157/5/2 158/5/2 162/5/2
f 162/5/2 158/5/2 163/5/2
f 163/5/2 158/5/2 164/5/2
f 159/5/2 160/5/2 165/5/2
f 165/5/2 160/5/2 166/5/2
f 166/5/2 160/5/2 167/5/2
f 161/5/2 162/5/2 169/5/2
f 162/5/2 163/5/2 169/5/2
f 167/5/2 168/5/2 170/5/2
f 166/5/2 167/5/2 170/5/2
f 161/5/2 169/5/2 171/5/2
f 171/5/2 169/5/2 172/5/2
f 172/5/2 169/5/2 173/5/2
f 170/5/2 168/5/2 174/5/2
f 174/5/2 168/5/2 175/5/2
f 175/5/2 168/5/2 176/5/2
f 172/5/2 173/5/2 177/5/2
f 177/5/2 173/5/2 178/5/2
f 174/5/2 175/5/2 179/5/2
f 179/5/2 175/5/2 180/5/2
f 181/1/2 182/1/2 183/1/2
f 183/1/2 182/1/2 184/1/2
f 183/3/2 184/3/2 185/3/2
f 185/3/2 184/3/2 186/3/2
f 187/1/2 188/1/2 190/1/2
f 190/1/2 188/1/2 191/1/2
f 189/3/2 190/3/2 193/3/2
f 190/2/2 191/2/2 194/2/2
f 193/3/2 190/3/2 194/3/2
f 191/3/2 192/3/2 195/3/2
f 194/2/2 191/2/2 195/2/2
f 195/3/2 192/3/2 196/3/2
f 194/3/2 195/3/2 197/3/2
f 197/3/2 195/3/2 198/3/2
f 199/3/2 200/3/2 202/3/2
f 202/3/2 200/3/2 203/3/2
f 201/3/2 202/3/2 204/3/2
f 204/3/2 202/3/2 205/3/2
f 206/5/2 207/5/2 211/5/2
f 211/5/2 207/5/2 212/5/2
f 212/5/2 207/5/2 213/5/2
f 208/5/2 209/5/2 214/5/2
f 214/5/2 209/5/2 215/5/2
f 215/5/2 209/5/2 216/5/2
f 210/5/2 211/5/2 218/5/2
f 212/5/2 213/5/2 219/5/2
f 214/5/2 215/5/2 219/5/2
f 213/5/2 214/5/2 219/5/2
f 219/5/2 215/5/2 220/5/2
f 220/5/2 215/5/2 221/5/2
f 221/5/2 215/5/2 222/5/2
f 216/5/2 217/5/2 223/5/2
f 210/5/2 218/5/2 224/5/2
f 218/5/2 219/5/2 224/5/2
f 224/5/2 219/5/2 225/5/2
f 225/5/2 219/5/2 226/5/2
f 220/5/2 221/5/2 227/5/2
f 227/5/2 221/5/2 228/5/2
f 222/5/2 223/5/2 229/5/2
f 223/5/2 217/5/2 230/5/2
f 229/5/2 223/5/2 230/5/2
f 230/5/2 217/5/2 231/5/2
f 225/5/2 226/5/2 232/5/2
f 226/5/2 227/5/2 232/5/2
f 232/5/2 227/5/2 233/5/2
f 228/5/2 229/5/2 234/5/2
f 229/5/2 230/5/2 234/5/2
f 234/5/2 230/5/2 235/5/2
f 236/1/2 237/1/2 240/1/2
f 240/1/2 237/1/2 241/1/2
f 238/1/2 239/1/2 242/1/2
f 242/1/2 239/1/2 243/1/2
f 240/3/2 241/3/2 244/3/2
f 244/3/2 241/3/2 245/3/2
f 242/3/2 243/3/2 246/3/2
f 246/3/2 243/3/2 247/3/2
f 248/3/2 249/3/2 250/3/2
f 250/3/2 249/3/2 251/3/2
f 250/2/2 251/2/2 252/2/2
f 251/3/2 249/3/2 253/3/2
f 252/2/2 251/2/2 253/2/2
f 253/3/2 249/3/2 254/3/2
f 255/1/2 256/1/2 259/1/2
f 259/1/2 256/1/2 260/1/2
f 257/1/2 258/1/2 263/1/2
f 263/1/2 258/1/2 264/1/2
f 260/1/2 261/1/2 265/1/2
f 265/1/2 261/1/2 266/1/2
f 262/1/2 263/1/2 267/1/2
f 267/1/2 263/1/2 268/1/2
f 269/3/2 270/3/2 271/3/2
f 271/3/2 270/3/2 272/3/2
f 273/3/2 274/3/2 275/3/2
f 275/3/2 274/3/2 276/3/2
f 277/3/2 278/3/2 281/3/2
f 279/4/2 280/4/2 282/4/2
f 280/3/2 281/3/2 283/3/2
f 282/4/2 280/4/2 283/4/2
f 281/3/2 278/3/2 284/3/2
f 283/3/2 281/3/2 284/3/2
f 287/4/3 286/4/3 285/4/3
f 288/4/3 286/4/3 287/4/3
f 291/5/3 290/5/3 289/5/3
f 292/5/3 290/5/3 291/5/3
f 295/5/3 294/5/3 293/5/3
f 296/5/3 294/5/3 295/5/3
f 299/4/3 298/4/3 297/4/3
f 300/4/3 298/4/3 299/4/3
f 305/1/3 302/1/3 301/1/3
f 306/1/3 302/1/3 305/1/3
f 308/5/3 304/5/3 303/5/3
f 309/5/3 304/5/3 308/5/3
f 310/5/3 307/5/3 306/5/3
f 311/5/3 307/5/3 310/5/3
f 316/5/3 313/5/3 312/5/3
f 317/5/3 313/5/3 316/5/3
f 319/5/3 315/5/3 314/5/3
f 320/5/3 315/5/3 319/5/3
f 321/1/3 318/1/3 317/1/3
f 322/1/3 318/1/3 321/1/3
f 325/3/3 324/3/3 323/3/3
f 326/3/3 324/3/3 325/3/3
f 329/1/3 328/1/3 327/1/3
f 330/1/3 328/1/3 329/1/3
f 338/1/3 332/1/3 331/1/3
f 339/1/3 332/1/3 338/1/3
f 340/3/3 333/3/3 332/3/3
f 340/1/3 332/1/3 339/1/3
f 341/3/3 333/3/3 340/3/3
f 342/3/3 335/3/3 334/3/3
f 343/1/3 336/1/3 335/1/3
f 343/3/3 335/3/3 342/3/3
f 344/3/3 339/3/3 338/3/3
f 344/1/3 336/1/3 343/1/3
f 344/3/3 337/3/3 336/3/3
f 344/3/3 338/3/3 337/3/3
f 345/3/3 339/3/3 344/3/3
f 346/3/3 339/3/3 345/3/3
f 347/3/3 339/3/3 346/3/3
f 352/1/3 348/1/3 347/1/3
f 352/1/3 347/1/3 346/1/3
f 353/3/3 349/3/3 348/3/3
f 353/1/3 348/1/3 352/1/3
f 354/3/3 349/3/3 353/3/3
f 355/1/3 351/1/3 350/1/3
f 356/1/3 351/1/3 355/1/3
f 359/3/3 358/3/3 357/3/3
f 360/3/3 358/3/3 359/3/3
f 364/3/3 362/3/3 361/3/3
f 364/3/3 363/3/3 362/3/3
f 365/3/3 363/3/3 364/3/3
f 366/3/3 363/3/3 365/3/3
f 368/3/3 367/3/3 366/3/3
f 368/3/3 366/3/3 365/3/3
f 369/3/3 367/3/3 368/3/3
f 370/3/3 367/3/3 369/3/3
f 375/3/3 370/3/3 369/3/3
f 375/3/3 371/3/3 370/3/3
f 376/2/3 372/2/3 371/2/3
f 376/3/3 371/3/3 375/3/3
f 377/2/3 372/2/3 376/2/3
f 378/3/3 375/3/3 374/3/3
f 378/3/3 374/3/3 373/3/3
f 378/3/3 377/3/3 376/3/3
f 378/3/3 376/3/3 375/3/3
f 379/3/3 377/3/3 378/3/3
f 380/3/3 377/3/3 379/3/3
f 381/3/3 377/3/3 380/3/3
f 382/3/3 377/3/3 381/3/3
f 384/3/3 381/3/3 380/3/3
f 385/3/3 381/3/3 384/3/3
f 386/2/3 382/2/3 381/2/3
f 386/3/3 381/3/3 385/3/3
f 387/2/3 382/2/3 386/2/3
f 389/3/3 385/3/3 384/3/3
f 389/3/3 384/3/3 383/3/3
f 390/3/3 385/3/3 389/3/3
f 391/3/3 385/3/3 390/3/3
f 392/3/3 389/3/3 388/3/3
f 392/3/3 390/3/3 389/3/3
f 393/3/3 390/3/3 392/3/3
f 394/3/3 390/3/3 393/3/3
f 397/3/3 396/3/3 395/3/3
f 398/3/3 396/3/3 397/3/3
f 402/1/3 400/1/3 399/1/3
f 403/1/3 400/1/3 402/1/3
f 408/5/3 402/5/3 401/5/3
f 409/5/3 402/5/3 408/5/3
f 410/5/3 405/5/3 404/5/3
f 411/5/3 405/5/3 410/5/3
f 412/1/3 407/1/3 406/1/3
f 413/1/3 407/1/3 412/1/3
f 420/5/3 415/5/3 414/5/3
f 421/5/3 415/5/3 420/5/3
f 423/5/3 417/5/3 416/5/3
f 424/5/3 417/5/3 423/5/3
f 425/1/3 419/1/3 418/1/3
f 426/1/3 419/1/3 425/1/3
f 427/1/3 423/1/3 422/1/3
f 428/1/3 423/1/3 427/1/3
f 431/1/3 430/1/3 429/1/3
f 432/1/3 430/1/3 431/1/3
f 435/1/3 434/1/3 433/1/3
f 436/1/3 434/1/3 435/1/3
f 437/1/4 438/1/4 439/1/4
f 439/1/4 438/1/4 440/1/4
f 441/1/4 442/1/4 443/1/4
f 443/1/4 442/1/4 444/1/4
f 445/1/4 446/1/4 448/1/4
f 448/1/4 446/1/4 449/1/4
f 447/5/4 448/5/4 454/5/4
f 454/5/4 448/5/4 455/5/4
f 450/5/4 451/5/4 456/5/4
f 456/5/4 451/5/4 457/5/4
f 452/1/4 453/1/4 458/1/4
f 458/1/4 453/1/4 459/1/4
f 460/5/4 461/5/4 466/5/4
f 466/5/4 461/5/4 467/5/4
f 462/5/4 463/5/4 469/5/4
f 469/5/4 463/5/4 470/5/4
f 464/1/4 465/1/4 471/1/4
f 471/1/4 465/1/4 472/1/4
f 468/1/4 469/1/4 473/1/4
f 473/1/4 469/1/4 474/1/4
f 475/3/4 476/3/4 477/3/4
f 477/3/4 476/3/4 478/3/4
f 478/3/4 476/3/4 479/3/4
f 479/3/4 480/3/4 481/3/4
f 478/3/4 479/3/4 481/3/4
f 481/3/4 480/3/4 482/3/4
f 482/3/4 480/3/4 483/3/4
f 483/3/4 484/3/4 485/3/4
f 482/3/4 483/3/4 485/3/4
f 485/3/4 484/3/4 486/3/4
f 486/3/4 484/3/4 487/3/4
f 487/3/4 488/3/4 489/3/4
f 486/3/4 487/3/4 489/3/4
f 489/3/4 488/3/4 490/3/4
f 490/3/4 491/3/4 493/3/4
f 493/3/4 491/3/4 494/3/4
f 492/3/4 493/3/4 496/3/4
f 496/3/4 493/3/4 497/3/4
f 497/3/4 493/3/4 498/3/4
f 495/3/4 496/3/4 500/3/4
f 496/3/4 497/3/4 500/3/4
f 500/3/4 497/3/4 501/3/4
f 501/3/4 497/3/4 502/3/4
f 499/3/4 500/3/4 504/3/4
f 500/3/4 501/3/4 504/3/4
f 504/3/4 501/3/4 505/3/4
f 505/3/4 501/3/4 506/3/4
f 503/3/4 504/3/4 507/3/4
f 504/3/4 505/3/4 507/3/4
f 507/3/4 505/3/4 508/3/4
f 509/1/4 510/1/4 511/1/4
f 511/1/4 510/1/4 512/1/4
f 513/1/4 514/1/4 520/1/4
f 514/3/4 515/3/4 521/3/4
f 520/1/4 514/1/4 521/1/4
f 521/3/4 515/3/4 522/3/4
f 516/3/4 517/3/4 524/3/4
f 517/1/4 518/1/4 525/1/4
f 524/3/4 517/3/4 525/3/4
f 519/3/4 520/3/4 526/3/4
f 525/1/4 518/1/4 526/1/4
f 518/3/4 519/3/4 526/3/4
f 521/3/4 522/3/4 526/3/4
f 520/3/4 521/3/4 526/3/4
f 522/3/4 523/3/4 526/3/4
f 526/3/4 523/3/4 527/3/4
f 527/3/4 523/3/4 528/3/4
f 528/3/4 523/3/4 529/3/4
f 529/3/4 523/3/4 530/3/4
f 530/3/4 523/3/4 531/3/4
f 528/1/4 529/1/4 534/1/4
f 529/3/4 530/3/4 535/3/4
f 534/1/4 529/1/4 535/1/4
f 535/3/4 530/3/4 536/3/4
f 532/1/4 533/1/4 537/1/4
f 537/1/4 533/1/4 538/1/4
f 539/1/4 540/1/4 543/1/4
f 543/1/4 540/1/4 544/1/4
f 541/5/4 542/5/4 546/5/4
f 546/5/4 542/5/4 547/5/4
f 544/5/4 545/5/4 548/5/4
f 548/5/4 545/5/4 549/5/4
f 550/5/4 551/5/4 554/5/4
f 554/5/4 551/5/4 555/5/4
f 552/5/4 553/5/4 557/5/4
f 557/5/4 553/5/4 558/5/4
f 555/1/4 556/1/4 559/1/4
f 559/1/4 556/1/4 560/1/4
f 561/5/4 562/5/4 563/5/4
f 563/5/4 562/5/4 564/5/4
f 565/5/4 566/5/4 567/5/4
f 567/5/4 566/5/4 568/5/4
f 573/5/5 570/5/5 569/5/5
f 574/5/5 570/5/5 573/5/5
f 575/5/5 572/5/5 571/5/5
f 576/5/5 572/5/5 575/5/5
f 581/5/5 578/5/5 577/5/5
f 582/5/5 578/5/5 581/5/5
f 583/5/5 580/5/5 579/5/5
f 584/5/5 580/5/5 583/5/5
f 589/5/5 586/5/5 585/5/5
f 590/5/5 586/5/5 589/5/5
f 591/5/5 588/5/5 587/5/5
f 592/5/5 588/5/5 591/5/5
f 598/1/5 593/1/5 592/1/5
f 599/1/5 593/1/5 598/1/5
f 600/1/5 595/1/5 594/1/5
f 601/1/5 595/1/5 600/1/5
f 602/3/5 597/3/5 596/3/5
f 603/3/5 597/3/5 602/3/5
f 606/5/5 602/5/5 601/5/5
f 607/3/5 603/3/5 602/3/5
f 607/5/5 602/5/5 606/5/5
f 608/5/5 604/5/5 603/5/5
f 608/3/5 603/3/5 607/3/5
f 609/5/5 604/5/5 608/5/5
f 610/1/5 606/1/5 605/1/5
f 611/1/5 606/1/5 610/1/5
f 612/3/5 608/3/5 607/3/5
f 613/3/5 608/3/5 612/3/5
f 619/1/5 615/1/5 614/1/5
f 620/1/5 615/1/5 619/1/5
f 621/5/5 617/5/5 616/5/5
f 622/5/5 617/5/5 621/5/5
f 623/5/5 619/5/5 618/5/5
f 624/5/5 619/5/5 623/5/5
f 627/1/5 626/1/5 625/1/5
f 628/1/5 626/1/5 627/1/5
f 631/1/5 630/1/5 629/1/5
f 632/1/5 630/1/5 631/1/5
f 637/1/5 634/1/5 633/1/5
f 638/1/5 634/1/5 637/1/5
f 639/1/5 636/1/5 635/1/5
f 640/1/5 636/1/5 639/1/5
f 645/3/5 642/3/5 641/3/5
f 646/3/5 642/3/5 645/3/5
f 647/3/5 644/3/5 643/3/5
f 648/3/5 644/3/5 647/3/5
f 653/4/5 650/4/5 649/4/5
f 654/4/5 650/4/5 653/4/5
f 655/4/5 652/4/5 651/4/5
f 656/4/5 652/4/5 655/4/5
f 657/3/5 654/3/5 653/3/5
f 658/3/5 654/3/5 657/3/5
f 663/3/5 656/3/5 655/3/5
f 664/3/5 656/3/5 663/3/5
f 667/1/5 660/1/5 659/1/5
f 668/1/5 660/1/5 667/1/5
f 669/1/5 662/1/5 661/1/5
f 670/1/5 662/1/5 669/1/5
f 673/3/5 666/3/5 665/3/5
f 674/3/5 666/3/5 673/3/5
f 679/3/5 672/3/5 671/3/5
f 680/3/5 672/3/5 679/3/5
f 681/1/5 676/1/5 675/1/5
f 682/1/5 676/1/5 681/1/5
f 683/1/5 678/1/5 677/1/5
f 684/1/5 678/1/5 683/1/5
f 691/3/5 686/3/5 685/3/5
f 691/3/5 687/3/5 686/3/5
f 692/3/5 687/3/5 691/3/5
f 693/3/5 687/3/5 692/3/5
f 694/3/5 690/3/5 689/3/5
f 694/3/5 689/3/5 688/3/5
f 695/3/5 690/3/5 694/3/5
f 696/3/5 690/3/5 695/3/5
f 697/1/6 698/1/6 701/1/6
f 701/1/6 698/1/6 702/1/6
f 699/1/6 700/1/6 703/1/6
f 703/1/6 700/1/6 704/1/6
f 705/1/6 706/1/6 707/1/6
f 707/1/6 706/1/6 708/1/6
f 709/1/6 710/1/6 711/1/6
f 711/1/6 710/1/6 712/1/6
f 713/5/6 714/5/6 718/5/6
f 718/5/6 714/5/6 719/5/6
f 715/5/6 716/5/6 720/5/6
f 720/5/6 716/5/6 721/5/6
f 717/1/6 718/1/6 722/1/6
f 722/1/6 718/1/6 723/1/6
f 724/1/6 725/1/6 729/1/6
f 729/1/6 725/1/6 730/1/6
f 726/5/6 727/5/6 731/5/6
f 731/5/6 727/5/6 732/5/6
f 728/5/6 729/5/6 733/5/6
f 733/5/6 729/5/6 734/5/6
f 734/1/6 735/1/6 738/1/6
f 738/1/6 735/1/6 739/1/6
f 736/1/6 737/1/6 740/1/6
f 740/1/6 737/1/6 741/1/6
f 741/5/6 742/5/6 745/5/6
f 745/5/6 742/5/6 746/5/6
f 743/5/6 744/5/6 747/5/6
f 747/5/6 744/5/6 748/5/6
f 749/5/6 750/5/6 753/5/6
f 751/5/6 752/5/6 754/5/6
f 749/5/6 753/5/6 755/5/6
f 755/5/6 753/5/6 756/5/6
f 754/5/6 752/5/6 757/5/6
f 757/5/6 752/5/6 758/5/6
f 759/5/6 760/5/6 763/5/6
f 761/5/6 762/5/6 764/5/6
f 759/5/6 763/5/6 765/5/6
f 765/5/6 763/5/6 766/5/6
f 764/5/6 762/5/6 767/5/6
f 767/5/6 762/5/6 768/5/6
f 769/4/6 770/4/6 773/4/6
f 773/4/6 770/4/6 774/4/6
f 771/4/6 772/4/6 775/4/6
f 775/4/6 772/4/6 776/4/6
f 773/3/6 774/3/6 779/3/6
f 777/3/6 778/3/6 780/3/6
f 780/3/6 778/3/6 781/3/6
f 775/3/6 776/3/6 782/3/6
f 773/3/6 779/3/6 783/3/6
f 783/3/6 779/3/6 784/3/6
f 782/3/6 776/3/6 785/3/6
f 785/3/6 776/3/6 786/3/6
f 787/3/6 788/3/6 793/3/6
f 793/3/6 788/3/6 794/3/6
f 789/3/6 790/3/6 795/3/6
f 795/3/6 790/3/6 796/3/6
f 791/3/6 792/3/6 799/3/6
f 799/3/6 792/3/6 800/3/6
f 797/3/6 798/3/6 805/3/6
f 805/3/6 798/3/6 806/3/6
f 801/3/6 802/3/6 807/3/6
f 807/3/6 802/3/6 808/3/6
f 803/3/6 804/3/6 809/3/6
f 809/3/6 804/3/6 810/3/6
f 811/3/6 812/3/6 815/3/6
f 815/3/6 812/3/6 816/3/6
f 813/3/6 814/3/6 817/3/6
f 817/3/6 814/3/6 818/3/6
f 819/2/6 820/2/6 823/2/6
f 820/3/6 821/3/6 824/3/6
f 823/2/6 820/2/6 824/2/6
f 821/2/6 822/2/6 825/2/6
f 824/3/6 821/3/6 825/3/6
f 825/2/6 822/2/6 826/2/6
f 823/3/6 824/3/6 827/3/6
f 827/3/6 824/3/6 828/3/6
f 825/3/6 826/3/6 829/3/6
f 829/3/6 826/3/6 830/3/6
f 828/3/6 829/3/6 831/3/6
f 831/3/6 829/3/6 832/3/6
f 833/3/6 834/3/6 835/3/6
f 835/3/6 834/3/6 836/3/6
