# MagicaVoxel @ Ephtracy

# material
mtllib flag.mtl
usemtl palette

# normals
vn -1 0 0
vn 1 0 0
vn 0 0 1
vn 0 0 -1
vn 0 -1 0
vn 0 1 0

# texcoords
vt 0.970703 0.5
vt 0.974609 0.5
vt 0.978516 0.5
vt 0.994141 0.5

# verts
v -7 0 7
v -7 0 3
v -7 0 -3
v -7 0 -7
v -7 3 7
v -7 3 3
v -7 3 -3
v -7 3 -7
v -5 0 3
v -5 0 -3
v -5 2 3
v -5 2 -3
v -3 52 -6
v -3 52 -11
v -3 53 -6
v -3 53 -7
v -3 53 -9
v -3 53 -11
v -3 53 -15
v -3 54 -11
v -3 54 -13
v -3 54 -15
v -3 54 -16
v -3 58 -11
v -3 58 -13
v -3 58 -15
v -3 58 -16
v -3 59 -6
v -3 59 -7
v -3 59 -9
v -3 59 -11
v -3 59 -15
v -3 60 -6
v -3 60 -11
v -2 2 1
v -2 2 -1
v -2 4 1
v -2 4 -1
v -2 50 1
v -2 50 -1
v -2 51 1
v -2 51 -1
v -2 51 -2
v -2 51 -7
v -2 52 -2
v -2 52 -3
v -2 52 -5
v -2 52 -6
v -2 52 -7
v -2 53 -6
v -2 59 -6
v -2 60 -2
v -2 60 -3
v -2 60 -5
v -2 60 -6
v -2 60 -7
v -2 61 1
v -2 61 -1
v -2 61 -2
v -2 61 -7
v -2 62 1
v -2 62 -1
v -1 2 2
v -1 2 1
v -1 2 -1
v -1 2 -2
v -1 4 2
v -1 4 1
v -1 4 -1
v -1 4 -2
v -1 50 2
v -1 50 1
v -1 50 -1
v -1 50 -2
v -1 51 2
v -1 51 1
v -1 51 -1
v -1 51 -2
v -1 52 -1
v -1 52 -2
v -1 60 -1
v -1 60 -2
v -1 61 2
v -1 61 1
v -1 61 -1
v -1 61 -2
v -1 62 2
v -1 62 1
v -1 62 -1
v -1 62 -2
v -1 64 1
v -1 64 -1
v 3 0 7
v 3 0 5
v 3 0 -5
v 3 0 -7
v 3 2 5
v 3 2 3
v 3 2 -3
v 3 2 -5
v 3 3 7
v 3 3 3
v 3 3 -3
v 3 3 -7
v -3 0 7
v -3 0 5
v -3 0 -5
v -3 0 -7
v -3 2 5
v -3 2 3
v -3 2 -3
v -3 2 -5
v -3 3 7
v -3 3 3
v -3 3 -3
v -3 3 -7
v -2 52 -7
v -2 52 -11
v -2 53 -7
v -2 53 -9
v -2 53 -11
v -2 53 -15
v -2 54 -11
v -2 54 -13
v -2 54 -15
v -2 54 -16
v -2 58 -11
v -2 58 -13
v -2 58 -15
v -2 58 -16
v -2 59 -7
v -2 59 -9
v -2 59 -11
v -2 59 -15
v -2 60 -7
v -2 60 -11
v -1 51 -3
v -1 51 -7
v -1 52 -3
v -1 52 -5
v -1 52 -7
v -1 60 -3
v -1 60 -5
v -1 60 -7
v -1 61 -3
v -1 61 -7
v 0 51 -1
v 0 51 -2
v 0 51 -3
v 0 52 -1
v 0 52 -3
v 0 60 -1
v 0 60 -3
v 0 61 -1
v 0 61 -2
v 0 61 -3
v 1 2 2
v 1 2 1
v 1 2 -1
v 1 2 -2
v 1 4 2
v 1 4 1
v 1 4 -1
v 1 4 -2
v 1 50 2
v 1 50 1
v 1 50 -1
v 1 50 -2
v 1 51 2
v 1 51 1
v 1 51 -1
v 1 51 -2
v 1 61 2
v 1 61 1
v 1 61 -1
v 1 61 -2
v 1 62 2
v 1 62 1
v 1 62 -1
v 1 62 -2
v 1 64 1
v 1 64 -1
v 2 2 1
v 2 2 -1
v 2 4 1
v 2 4 -1
v 2 50 1
v 2 50 -1
v 2 51 1
v 2 51 -1
v 2 61 1
v 2 61 -1
v 2 62 1
v 2 62 -1
v 5 0 3
v 5 0 -3
v 5 2 3
v 5 2 -3
v 7 0 7
v 7 0 3
v 7 0 -3
v 7 0 -7
v 7 3 7
v 7 3 3
v 7 3 -3
v 7 3 -7
v -7 0 7
v -7 3 7
v -3 0 7
v -3 3 7
v 3 0 7
v 3 3 7
v 7 0 7
v 7 3 7
v -3 0 5
v -3 2 5
v 3 0 5
v 3 2 5
v -1 2 2
v -1 4 2
v -1 50 2
v -1 51 2
v -1 61 2
v -1 62 2
v 1 2 2
v 1 4 2
v 1 50 2
v 1 51 2
v 1 61 2
v 1 62 2
v -2 2 1
v -2 4 1
v -2 50 1
v -2 51 1
v -2 61 1
v -2 62 1
v -1 2 1
v -1 4 1
v -1 50 1
v -1 51 1
v -1 61 1
v -1 62 1
v -1 64 1
v 1 2 1
v 1 4 1
v 1 50 1
v 1 51 1
v 1 61 1
v 1 62 1
v 1 64 1
v 2 2 1
v 2 4 1
v 2 50 1
v 2 51 1
v 2 61 1
v 2 62 1
v -2 51 -2
v -2 52 -2
v -2 60 -2
v -2 61 -2
v -1 51 -2
v -1 52 -2
v -1 60 -2
v -1 61 -2
v -7 0 -3
v -7 3 -3
v -5 0 -3
v -5 2 -3
v -3 2 -3
v -3 3 -3
v 3 2 -3
v 3 3 -3
v 5 0 -3
v 5 2 -3
v 7 0 -3
v 7 3 -3
v -3 52 -6
v -3 53 -6
v -3 59 -6
v -3 60 -6
v -2 52 -6
v -2 53 -6
v -2 59 -6
v -2 60 -6
v -7 0 3
v -7 3 3
v -5 0 3
v -5 2 3
v -3 2 3
v -3 3 3
v 3 2 3
v 3 3 3
v 5 0 3
v 5 2 3
v 7 0 3
v 7 3 3
v -2 2 -1
v -2 4 -1
v -2 50 -1
v -2 51 -1
v -2 61 -1
v -2 62 -1
v -1 2 -1
v -1 4 -1
v -1 50 -1
v -1 51 -1
v -1 61 -1
v -1 62 -1
v -1 64 -1
v 0 51 -1
v 0 52 -1
v 0 60 -1
v 0 61 -1
v 1 2 -1
v 1 4 -1
v 1 50 -1
v 1 51 -1
v 1 61 -1
v 1 62 -1
v 1 64 -1
v 2 2 -1
v 2 4 -1
v 2 50 -1
v 2 51 -1
v 2 61 -1
v 2 62 -1
v -1 2 -2
v -1 4 -2
v -1 50 -2
v -1 51 -2
v -1 61 -2
v -1 62 -2
v 0 51 -2
v 0 61 -2
v 1 2 -2
v 1 4 -2
v 1 50 -2
v 1 51 -2
v 1 61 -2
v 1 62 -2
v -1 51 -3
v -1 52 -3
v -1 60 -3
v -1 61 -3
v 0 51 -3
v 0 52 -3
v 0 60 -3
v 0 61 -3
v -3 0 -5
v -3 2 -5
v 3 0 -5
v 3 2 -5
v -7 0 -7
v -7 3 -7
v -3 0 -7
v -3 3 -7
v -2 51 -7
v -2 52 -7
v -2 53 -7
v -2 59 -7
v -2 60 -7
v -2 61 -7
v -1 51 -7
v -1 52 -7
v -1 60 -7
v -1 61 -7
v 3 0 -7
v 3 3 -7
v 7 0 -7
v 7 3 -7
v -3 52 -11
v -3 53 -11
v -3 59 -11
v -3 60 -11
v -2 52 -11
v -2 53 -11
v -2 59 -11
v -2 60 -11
v -3 53 -15
v -3 54 -15
v -3 58 -15
v -3 59 -15
v -2 53 -15
v -2 54 -15
v -2 58 -15
v -2 59 -15
v -3 54 -16
v -3 58 -16
v -2 54 -16
v -2 58 -16
v -7 0 7
v -3 0 7
v 3 0 7
v 7 0 7
v -3 0 5
v 3 0 5
v -7 0 3
v -5 0 3
v -3 0 3
v 3 0 3
v 5 0 3
v 7 0 3
v -1 0 1
v 1 0 1
v -1 0 -1
v 1 0 -1
v -7 0 -3
v -5 0 -3
v -3 0 -3
v 3 0 -3
v 5 0 -3
v 7 0 -3
v -3 0 -5
v 3 0 -5
v -7 0 -7
v -3 0 -7
v 3 0 -7
v 7 0 -7
v -1 50 2
v 1 50 2
v -2 50 1
v -1 50 1
v 1 50 1
v 2 50 1
v -2 50 -1
v -1 50 -1
v 1 50 -1
v 2 50 -1
v -1 50 -2
v 1 50 -2
v -2 51 -2
v -1 51 -2
v 0 51 -2
v -1 51 -3
v 0 51 -3
v -2 51 -7
v -1 51 -7
v -3 52 -6
v -2 52 -6
v -2 52 -7
v -3 52 -11
v -2 52 -11
v -3 53 -11
v -2 53 -11
v -3 53 -15
v -2 53 -15
v -3 54 -15
v -2 54 -15
v -3 54 -16
v -2 54 -16
v -1 61 2
v 1 61 2
v -2 61 1
v -1 61 1
v 1 61 1
v 2 61 1
v -2 61 -1
v -1 61 -1
v 0 61 -1
v 1 61 -1
v 2 61 -1
v 0 61 -2
v 1 61 -2
v -3 2 5
v 3 2 5
v -5 2 3
v -3 2 3
v 3 2 3
v 5 2 3
v -1 2 2
v 1 2 2
v -2 2 1
v -1 2 1
v 1 2 1
v 2 2 1
v -2 2 -1
v -1 2 -1
v 1 2 -1
v 2 2 -1
v -1 2 -2
v 1 2 -2
v -5 2 -3
v -3 2 -3
v 3 2 -3
v 5 2 -3
v -3 2 -5
v 3 2 -5
v -7 3 7
v -3 3 7
v 3 3 7
v 7 3 7
v -7 3 3
v -3 3 3
v 3 3 3
v 7 3 3
v -7 3 -3
v -3 3 -3
v 3 3 -3
v 7 3 -3
v -7 3 -7
v -3 3 -7
v 3 3 -7
v 7 3 -7
v -1 4 2
v 1 4 2
v -2 4 1
v -1 4 1
v 1 4 1
v 2 4 1
v -2 4 -1
v -1 4 -1
v 1 4 -1
v 2 4 -1
v -1 4 -2
v 1 4 -2
v -1 51 2
v 1 51 2
v -2 51 1
v -1 51 1
v 1 51 1
v 2 51 1
v -2 51 -1
v -1 51 -1
v 0 51 -1
v 1 51 -1
v 2 51 -1
v 0 51 -2
v 1 51 -2
v -3 58 -15
v -2 58 -15
v -3 58 -16
v -2 58 -16
v -3 59 -11
v -2 59 -11
v -3 59 -15
v -2 59 -15
v -3 60 -6
v -2 60 -6
v -2 60 -7
v -3 60 -11
v -2 60 -11
v -2 61 -2
v -1 61 -2
v 0 61 -2
v -1 61 -3
v 0 61 -3
v -2 61 -7
v -1 61 -7
v -1 62 2
v 1 62 2
v -2 62 1
v -1 62 1
v 1 62 1
v 2 62 1
v -2 62 -1
v -1 62 -1
v 1 62 -1
v 2 62 -1
v -1 62 -2
v 1 62 -2
v -1 64 1
v 1 64 1
v -1 64 -1
v 1 64 -1

# faces
f 5/1/1 2/1/1 1/1/1
f 6/1/1 2/1/1 5/1/1
f 7/1/1 4/1/1 3/1/1
f 8/1/1 4/1/1 7/1/1
f 11/4/1 10/4/1 9/4/1
f 12/4/1 10/4/1 11/4/1
f 15/4/1 14/4/1 13/4/1
f 16/4/1 14/4/1 15/4/1
f 17/4/1 14/4/1 16/4/1
f 18/4/1 14/4/1 17/4/1
f 20/3/1 18/3/1 17/3/1
f 20/4/1 19/4/1 18/4/1
f 21/4/1 19/4/1 20/4/1
f 22/4/1 19/4/1 21/4/1
f 24/3/1 20/3/1 17/3/1
f 24/2/1 21/2/1 20/2/1
f 25/3/1 22/3/1 21/3/1
f 25/2/1 21/2/1 24/2/1
f 26/4/1 23/4/1 22/4/1
f 26/3/1 22/3/1 25/3/1
f 27/4/1 23/4/1 26/4/1
f 28/3/1 16/3/1 15/3/1
f 29/2/1 17/2/1 16/2/1
f 29/3/1 16/3/1 28/3/1
f 30/3/1 24/3/1 17/3/1
f 30/2/1 17/2/1 29/2/1
f 31/4/1 25/4/1 24/4/1
f 31/3/1 24/3/1 30/3/1
f 31/4/1 26/4/1 25/4/1
f 32/4/1 26/4/1 31/4/1
f 33/4/1 30/4/1 29/4/1
f 33/4/1 29/4/1 28/4/1
f 33/4/1 31/4/1 30/4/1
f 34/4/1 31/4/1 33/4/1
f 37/4/1 36/4/1 35/4/1
f 38/4/1 36/4/1 37/4/1
f 41/4/1 40/4/1 39/4/1
f 42/4/1 40/4/1 41/4/1
f 45/4/1 44/4/1 43/4/1
f 46/4/1 44/4/1 45/4/1
f 47/4/1 44/4/1 46/4/1
f 48/4/1 44/4/1 47/4/1
f 49/4/1 44/4/1 48/4/1
f 50/3/1 48/3/1 47/3/1
f 51/3/1 50/3/1 47/3/1
f 52/3/1 46/3/1 45/3/1
f 53/2/1 47/2/1 46/2/1
f 53/3/1 46/3/1 52/3/1
f 54/3/1 51/3/1 47/3/1
f 54/2/1 47/2/1 53/2/1
f 55/3/1 51/3/1 54/3/1
f 59/4/1 55/4/1 54/4/1
f 59/4/1 54/4/1 53/4/1
f 59/4/1 56/4/1 55/4/1
f 59/4/1 53/4/1 52/4/1
f 60/4/1 56/4/1 59/4/1
f 61/4/1 58/4/1 57/4/1
f 62/4/1 58/4/1 61/4/1
f 67/4/1 64/4/1 63/4/1
f 68/4/1 64/4/1 67/4/1
f 69/4/1 66/4/1 65/4/1
f 70/4/1 66/4/1 69/4/1
f 72/1/1 69/1/1 68/1/1
f 73/1/1 69/1/1 72/1/1
f 75/4/1 72/4/1 71/4/1
f 76/4/1 72/4/1 75/4/1
f 77/4/1 74/4/1 73/4/1
f 78/4/1 74/4/1 77/4/1
f 79/1/1 77/1/1 76/1/1
f 79/4/1 78/4/1 77/4/1
f 80/4/1 78/4/1 79/4/1
f 81/1/1 79/1/1 76/1/1
f 81/3/1 80/3/1 79/3/1
f 82/3/1 80/3/1 81/3/1
f 84/1/1 81/1/1 76/1/1
f 85/4/1 82/4/1 81/4/1
f 85/1/1 81/1/1 84/1/1
f 86/4/1 82/4/1 85/4/1
f 87/4/1 84/4/1 83/4/1
f 88/4/1 84/4/1 87/4/1
f 89/4/1 86/4/1 85/4/1
f 90/4/1 86/4/1 89/4/1
f 91/1/1 89/1/1 88/1/1
f 92/1/1 89/1/1 91/1/1
f 97/1/1 94/1/1 93/1/1
f 100/1/1 96/1/1 95/1/1
f 101/1/1 98/1/1 97/1/1
f 101/1/1 97/1/1 93/1/1
f 102/1/1 98/1/1 101/1/1
f 103/1/1 100/1/1 99/1/1
f 104/1/1 96/1/1 100/1/1
f 104/1/1 100/1/1 103/1/1
f 105/1/2 106/1/2 109/1/2
f 107/1/2 108/1/2 112/1/2
f 109/1/2 110/1/2 113/1/2
f 105/1/2 109/1/2 113/1/2
f 113/1/2 110/1/2 114/1/2
f 111/1/2 112/1/2 115/1/2
f 112/1/2 108/1/2 116/1/2
f 115/1/2 112/1/2 116/1/2
f 117/4/2 118/4/2 119/4/2
f 119/4/2 118/4/2 120/4/2
f 120/4/2 118/4/2 121/4/2
f 120/3/2 121/3/2 123/3/2
f 121/4/2 122/4/2 123/4/2
f 123/4/2 122/4/2 124/4/2
f 124/4/2 122/4/2 125/4/2
f 120/3/2 123/3/2 127/3/2
f 123/2/2 124/2/2 127/2/2
f 124/3/2 125/3/2 128/3/2
f 127/2/2 124/2/2 128/2/2
f 125/4/2 126/4/2 129/4/2
f 128/3/2 125/3/2 129/3/2
f 129/4/2 126/4/2 130/4/2
f 119/2/2 120/2/2 131/2/2
f 120/3/2 127/3/2 132/3/2
f 131/2/2 120/2/2 132/2/2
f 127/4/2 128/4/2 133/4/2
f 132/3/2 127/3/2 133/3/2
f 128/4/2 129/4/2 133/4/2
f 133/4/2 129/4/2 134/4/2
f 131/4/2 132/4/2 135/4/2
f 132/4/2 133/4/2 135/4/2
f 135/4/2 133/4/2 136/4/2
f 137/4/2 138/4/2 139/4/2
f 139/4/2 138/4/2 140/4/2
f 140/4/2 138/4/2 141/4/2
f 139/2/2 140/2/2 142/2/2
f 140/3/2 141/3/2 143/3/2
f 142/2/2 140/2/2 143/2/2
f 143/3/2 141/3/2 144/3/2
f 142/4/2 143/4/2 145/4/2
f 143/4/2 144/4/2 145/4/2
f 145/4/2 144/4/2 146/4/2
f 147/4/2 148/4/2 150/4/2
f 148/4/2 149/4/2 150/4/2
f 150/4/2 149/4/2 151/4/2
f 150/3/2 151/3/2 152/3/2
f 152/3/2 151/3/2 153/3/2
f 152/4/2 153/4/2 154/4/2
f 154/4/2 153/4/2 155/4/2
f 155/4/2 153/4/2 156/4/2
f 157/4/2 158/4/2 161/4/2
f 161/4/2 158/4/2 162/4/2
f 159/4/2 160/4/2 163/4/2
f 163/4/2 160/4/2 164/4/2
f 162/1/2 163/1/2 166/1/2
f 166/1/2 163/1/2 167/1/2
f 165/4/2 166/4/2 169/4/2
f 169/4/2 166/4/2 170/4/2
f 167/4/2 168/4/2 171/4/2
f 171/4/2 168/4/2 172/4/2
f 170/1/2 171/1/2 174/1/2
f 174/1/2 171/1/2 175/1/2
f 173/4/2 174/4/2 177/4/2
f 177/4/2 174/4/2 178/4/2
f 175/4/2 176/4/2 179/4/2
f 179/4/2 176/4/2 180/4/2
f 178/1/2 179/1/2 181/1/2
f 181/1/2 179/1/2 182/1/2
f 183/4/2 184/4/2 185/4/2
f 185/4/2 184/4/2 186/4/2
f 187/4/2 188/4/2 189/4/2
f 189/4/2 188/4/2 190/4/2
f 191/4/2 192/4/2 193/4/2
f 193/4/2 192/4/2 194/4/2
f 195/4/2 196/4/2 197/4/2
f 197/4/2 196/4/2 198/4/2
f 199/1/2 200/1/2 203/1/2
f 203/1/2 200/1/2 204/1/2
f 201/1/2 202/1/2 205/1/2
f 205/1/2 202/1/2 206/1/2
f 209/1/3 208/1/3 207/1/3
f 210/1/3 208/1/3 209/1/3
f 213/1/3 212/1/3 211/1/3
f 214/1/3 212/1/3 213/1/3
f 217/4/3 216/4/3 215/4/3
f 218/4/3 216/4/3 217/4/3
f 225/4/3 220/4/3 219/4/3
f 226/4/3 220/4/3 225/4/3
f 227/4/3 222/4/3 221/4/3
f 228/4/3 222/4/3 227/4/3
f 229/4/3 224/4/3 223/4/3
f 230/4/3 224/4/3 229/4/3
f 237/4/3 232/4/3 231/4/3
f 238/4/3 232/4/3 237/4/3
f 239/4/3 234/4/3 233/4/3
f 240/4/3 234/4/3 239/4/3
f 241/4/3 236/4/3 235/4/3
f 242/4/3 236/4/3 241/4/3
f 245/1/3 239/1/3 238/1/3
f 246/1/3 239/1/3 245/1/3
f 247/1/3 241/1/3 240/1/3
f 248/1/3 241/1/3 247/1/3
f 249/1/3 243/1/3 242/1/3
f 250/1/3 243/1/3 249/1/3
f 251/4/3 245/4/3 244/4/3
f 252/4/3 245/4/3 251/4/3
f 253/4/3 247/4/3 246/4/3
f 254/4/3 247/4/3 253/4/3
f 255/4/3 249/4/3 248/4/3
f 256/4/3 249/4/3 255/4/3
f 261/4/3 258/4/3 257/4/3
f 262/3/3 259/3/3 258/3/3
f 262/4/3 258/4/3 261/4/3
f 263/4/3 260/4/3 259/4/3
f 263/3/3 259/3/3 262/3/3
f 264/4/3 260/4/3 263/4/3
f 267/1/3 266/1/3 265/1/3
f 268/1/3 266/1/3 267/1/3
f 269/1/3 266/1/3 268/1/3
f 270/1/3 266/1/3 269/1/3
f 274/1/3 272/1/3 271/1/3
f 275/1/3 274/1/3 273/1/3
f 276/1/3 272/1/3 274/1/3
f 276/1/3 274/1/3 275/1/3
f 281/4/3 278/4/3 277/4/3
f 282/3/3 279/3/3 278/3/3
f 282/4/3 278/4/3 281/4/3
f 283/4/3 280/4/3 279/4/3
f 283/3/3 279/3/3 282/3/3
f 284/4/3 280/4/3 283/4/3
f 285/1/4 286/1/4 287/1/4
f 287/1/4 286/1/4 288/1/4
f 288/1/4 286/1/4 289/1/4
f 289/1/4 286/1/4 290/1/4
f 291/1/4 292/1/4 294/1/4
f 293/1/4 294/1/4 295/1/4
f 294/1/4 292/1/4 296/1/4
f 295/1/4 294/1/4 296/1/4
f 297/4/4 298/4/4 303/4/4
f 303/4/4 298/4/4 304/4/4
f 299/4/4 300/4/4 305/4/4
f 305/4/4 300/4/4 306/4/4
f 301/4/4 302/4/4 307/4/4
f 307/4/4 302/4/4 308/4/4
f 304/1/4 305/1/4 315/1/4
f 315/1/4 305/1/4 316/1/4
f 312/1/4 313/1/4 317/1/4
f 310/1/4 311/1/4 317/1/4
f 311/1/4 312/1/4 317/1/4
f 317/1/4 313/1/4 318/1/4
f 308/1/4 309/1/4 319/1/4
f 319/1/4 309/1/4 320/1/4
f 314/4/4 315/4/4 321/4/4
f 321/4/4 315/4/4 322/4/4
f 316/4/4 317/4/4 323/4/4
f 323/4/4 317/4/4 324/4/4
f 318/4/4 319/4/4 325/4/4
f 325/4/4 319/4/4 326/4/4
f 329/4/4 330/4/4 333/4/4
f 331/4/4 332/4/4 334/4/4
f 327/4/4 328/4/4 335/4/4
f 335/4/4 328/4/4 336/4/4
f 329/4/4 333/4/4 337/4/4
f 337/4/4 333/4/4 338/4/4
f 334/4/4 332/4/4 339/4/4
f 339/4/4 332/4/4 340/4/4
f 341/4/4 342/4/4 345/4/4
f 342/3/4 343/3/4 346/3/4
f 345/4/4 342/4/4 346/4/4
f 343/4/4 344/4/4 347/4/4
f 346/3/4 343/3/4 347/3/4
f 347/4/4 344/4/4 348/4/4
f 349/4/4 350/4/4 351/4/4
f 351/4/4 350/4/4 352/4/4
f 353/1/4 354/1/4 355/1/4
f 355/1/4 354/1/4 356/1/4
f 357/4/4 358/4/4 363/4/4
f 358/3/4 359/3/4 364/3/4
f 363/4/4 358/4/4 364/4/4
f 359/3/4 360/3/4 364/3/4
f 360/3/4 361/3/4 364/3/4
f 361/4/4 362/4/4 365/4/4
f 364/3/4 361/3/4 365/3/4
f 365/4/4 362/4/4 366/4/4
f 367/1/4 368/1/4 369/1/4
f 369/1/4 368/1/4 370/1/4
f 371/4/4 372/4/4 375/4/4
f 375/4/4 372/4/4 376/4/4
f 373/4/4 374/4/4 377/4/4
f 377/4/4 374/4/4 378/4/4
f 379/4/4 380/4/4 383/4/4
f 383/4/4 380/4/4 384/4/4
f 381/4/4 382/4/4 385/4/4
f 385/4/4 382/4/4 386/4/4
f 387/4/4 388/4/4 389/4/4
f 389/4/4 388/4/4 390/4/4
f 395/1/5 392/1/5 391/1/5
f 396/1/5 394/1/5 393/1/5
f 397/1/5 395/1/5 391/1/5
f 398/1/5 395/1/5 397/1/5
f 399/4/5 396/4/5 395/4/5
f 399/1/5 395/1/5 398/1/5
f 400/1/5 394/1/5 396/1/5
f 400/4/5 396/4/5 399/4/5
f 401/1/5 394/1/5 400/1/5
f 402/1/5 394/1/5 401/1/5
f 403/4/5 399/4/5 398/4/5
f 403/4/5 401/4/5 400/4/5
f 403/4/5 400/4/5 399/4/5
f 404/4/5 401/4/5 403/4/5
f 405/4/5 403/4/5 398/4/5
f 405/1/5 404/1/5 403/1/5
f 406/4/5 401/4/5 404/4/5
f 406/1/5 404/1/5 405/1/5
f 408/4/5 405/4/5 398/4/5
f 408/4/5 406/4/5 405/4/5
f 409/4/5 406/4/5 408/4/5
f 410/4/5 401/4/5 406/4/5
f 410/4/5 406/4/5 409/4/5
f 411/4/5 401/4/5 410/4/5
f 413/1/5 409/1/5 408/1/5
f 413/1/5 408/1/5 407/1/5
f 413/4/5 410/4/5 409/4/5
f 414/1/5 412/1/5 411/1/5
f 414/4/5 410/4/5 413/4/5
f 414/1/5 411/1/5 410/1/5
f 415/1/5 413/1/5 407/1/5
f 416/1/5 413/1/5 415/1/5
f 417/1/5 412/1/5 414/1/5
f 418/1/5 412/1/5 417/1/5
f 422/4/5 420/4/5 419/4/5
f 423/4/5 420/4/5 422/4/5
f 425/4/5 422/4/5 421/4/5
f 426/4/5 422/4/5 425/4/5
f 427/4/5 424/4/5 423/4/5
f 428/4/5 424/4/5 427/4/5
f 429/4/5 427/4/5 426/4/5
f 430/4/5 427/4/5 429/4/5
f 434/4/5 432/4/5 431/4/5
f 434/4/5 433/4/5 432/4/5
f 435/4/5 433/4/5 434/4/5
f 436/4/5 434/4/5 431/4/5
f 437/4/5 434/4/5 436/4/5
f 440/4/5 439/4/5 438/4/5
f 441/4/5 440/4/5 438/4/5
f 442/4/5 440/4/5 441/4/5
f 445/4/5 444/4/5 443/4/5
f 446/4/5 444/4/5 445/4/5
f 449/4/5 448/4/5 447/4/5
f 450/4/5 448/4/5 449/4/5
f 454/4/5 452/4/5 451/4/5
f 455/4/5 452/4/5 454/4/5
f 457/4/5 454/4/5 453/4/5
f 458/4/5 454/4/5 457/4/5
f 460/4/5 456/4/5 455/4/5
f 461/4/5 456/4/5 460/4/5
f 462/4/5 460/4/5 459/4/5
f 463/4/5 460/4/5 462/4/5
f 464/4/6 465/4/6 467/4/6
f 467/4/6 465/4/6 468/4/6
f 466/4/6 467/4/6 470/4/6
f 468/4/6 469/4/6 470/4/6
f 467/4/6 468/4/6 470/4/6
f 470/4/6 469/4/6 471/4/6
f 466/4/6 470/4/6 472/4/6
f 472/4/6 470/4/6 473/4/6
f 471/4/6 469/4/6 474/4/6
f 474/4/6 469/4/6 475/4/6
f 466/4/6 472/4/6 476/4/6
f 475/4/6 469/4/6 479/4/6
f 476/4/6 477/4/6 480/4/6
f 478/4/6 479/4/6 481/4/6
f 476/4/6 480/4/6 482/4/6
f 480/4/6 481/4/6 482/4/6
f 466/4/6 476/4/6 482/4/6
f 482/4/6 481/4/6 483/4/6
f 481/4/6 479/4/6 484/4/6
f 483/4/6 481/4/6 484/4/6
f 479/4/6 469/4/6 484/4/6
f 484/4/6 469/4/6 485/4/6
f 483/4/6 484/4/6 486/4/6
f 486/4/6 484/4/6 487/4/6
f 488/1/6 489/1/6 492/1/6
f 492/1/6 489/1/6 493/1/6
f 490/1/6 491/1/6 494/1/6
f 494/1/6 491/1/6 495/1/6
f 496/1/6 497/1/6 500/1/6
f 500/1/6 497/1/6 501/1/6
f 498/1/6 499/1/6 502/1/6
f 502/1/6 499/1/6 503/1/6
f 504/4/6 505/4/6 507/4/6
f 507/4/6 505/4/6 508/4/6
f 506/4/6 507/4/6 510/4/6
f 510/4/6 507/4/6 511/4/6
f 508/4/6 509/4/6 512/4/6
f 512/4/6 509/4/6 513/4/6
f 511/4/6 512/4/6 514/4/6
f 514/4/6 512/4/6 515/4/6
f 516/4/6 517/4/6 519/4/6
f 519/4/6 517/4/6 520/4/6
f 518/4/6 519/4/6 522/4/6
f 522/4/6 519/4/6 523/4/6
f 520/4/6 521/4/6 525/4/6
f 525/4/6 521/4/6 526/4/6
f 524/4/6 525/4/6 527/4/6
f 527/4/6 525/4/6 528/4/6
f 529/4/6 530/4/6 531/4/6
f 531/4/6 530/4/6 532/4/6
f 533/4/6 534/4/6 535/4/6
f 535/4/6 534/4/6 536/4/6
f 537/4/6 538/4/6 539/4/6
f 537/4/6 539/4/6 540/4/6
f 540/4/6 539/4/6 541/4/6
f 542/4/6 543/4/6 545/4/6
f 543/4/6 544/4/6 545/4/6
f 545/4/6 544/4/6 546/4/6
f 542/4/6 545/4/6 547/4/6
f 547/4/6 545/4/6 548/4/6
f 549/4/6 550/4/6 552/4/6
f 552/4/6 550/4/6 553/4/6
f 551/4/6 552/4/6 555/4/6
f 555/4/6 552/4/6 556/4/6
f 553/4/6 554/4/6 557/4/6
f 557/4/6 554/4/6 558/4/6
f 556/4/6 557/4/6 559/4/6
f 559/4/6 557/4/6 560/4/6
f 561/1/6 562/1/6 563/1/6
f 563/1/6 562/1/6 564/1/6
